<?xml version="1.0" encoding="UTF-8"?>
<svg xmlns="http://www.w3.org/2000/svg" viewBox="0 0 192 192"><path d="M175.436 107.354a9.867 9.867 0 0 0-5.075-5.708l-71.824-34.62 1.746-3.61.711.343c.98.474 2.032.713 3.089.713a7.12 7.12 0 0 0 2.344-.4 7.062 7.062 0 0 0 4.062-3.619l4.257-8.808c1.706-3.529.222-7.788-3.307-9.494L77.421 25.71c-3.529-1.706-7.788-.223-9.493 3.307l-4.258 8.808c-1.705 3.53-.221 7.788 3.308 9.494l.802.388-13.926 28.81-.803-.388c-3.529-1.706-7.787-.222-9.493 3.307l-4.257 8.809c-1.706 3.528-.222 7.787 3.306 9.493l34.018 16.442a7.06 7.06 0 0 0 3.082.708 7.119 7.119 0 0 0 6.412-4.014l4.256-8.809a7.06 7.06 0 0 0 .314-5.43 7.062 7.062 0 0 0-3.62-4.063l-.712-.345 1.736-3.591 71.847 34.63a9.862 9.862 0 0 0 4.292.983c3.716 0 7.295-2.09 9.019-5.668l1.737-3.603a9.956 9.956 0 0 0 .448-7.623zm-96.132-.766L46.892 90.922l3.48-7.203 17.384 8.403 15.03 7.264-3.482 7.202zM74.743 33.3l32.412 15.666-3.481 7.203L71.26 40.503l3.482-7.203zm.24 17.887l7.653 3.7 10.444 5.047-13.926 28.81-18.097-8.746 13.926-28.81zm92.799 60.316l-1.737 3.603c-.48.994-1.66 1.421-2.63.953l-71.84-34.627 3.48-7.203 71.832 34.624c.629.302.888.828.988 1.114.174.505.141 1.05-.093 1.536zM108 144c0-4.411-3.589-8-8-8H32c-4.411 0-8 3.589-8 8v8h-8.128v24H116v-24h-8v-8zm0 24H23.872v-8H108v8zm-76-16v-8h68l.005 8H32z" style="fill: #43884c;"/></svg>
