<?xml version="1.0" encoding="UTF-8"?>
<svg xmlns="http://www.w3.org/2000/svg" viewBox="0 0 192 192"><path d="M152 84h-39.563L95.975 59.92C93.48 56.019 90.887 52 85.038 52H74.972l7.384 32h-10.64l-26.302 3.757L34.83 77.171C30.335 72.68 28.387 72 24.02 72h-8.49l3.489 31.398c.414 4.142 2.67 9.44 11.037 11.15L55.99 120H152c13.907 0 24-7.57 24-18s-10.093-18-24-18zm0 28H56.422l-24.729-5.283c-4.052-.828-4.557-2.558-4.717-4.159l-2.507-22.557c1.85.013 2.073.198 4.702 2.828l13.415 13.414L72.284 92h11.919l2.769 12h8.21L85.028 60h.01c1.056 0 1.493 0 4.23 4.281L116.42 104h9.69l-8.203-12H152c9.42 0 16 4.112 16 10s-6.58 10-16 10z" style="fill: #212529;"/></svg>
