<svg xmlns="http://www.w3.org/2000/svg" viewBox="0 0 192 192"><path d="M51.92 82.52h.003l2.298 6.127-.001.003-4.6 18.16 4.01 4.77 4.24-1.18 5.63-1.57 6.73-1.87.15-.18-4.6-18.13v-.003l2.318-6.182-.024-.176.006.001c4.63.98 8.94 2.84 12.74 5.4 1.44-2.26 3.03-4.41 4.77-6.43a44.5 44.5 0 0 0-12.35-5.9C82.02 70.75 88 61.69 88 51.3 88 36.25 75.44 24 60 24S32 36.25 32 51.3c0 10.54 6.15 19.7 15.14 24.25C29.11 81.23 16 98.11 16 118v2h8v-2c0-17.17 11.92-31.61 27.92-35.48zM40 51.3C40 40.66 48.97 32 60 32s20 8.66 20 19.3c0 10.65-8.97 19.31-20 19.31S40 61.95 40 51.3zm102.56 20.92c2.77-1.54 5.27-3.51 7.41-5.82A29.818 29.818 0 0 0 158 46c0-16.54-13.46-30-30-30S98 29.46 98 46c0 7.87 3.04 15.05 8.03 20.4 2.14 2.31 4.64 4.28 7.41 5.82a47.228 47.228 0 0 0-21.66 14.16 47.508 47.508 0 0 0-4.76 6.56 48.145 48.145 0 0 0-4.93 11.12c.16-.02.31-.03.47-.04l.63-.02h7.38c.49-1.36 1.06-2.68 1.7-3.96a40.16 40.16 0 0 1 4.76-7.43c7.29-8.95 18.36-14.57 30.97-14.57 22.43 0 40 17.79 40 40.5V120h8v-1.46c0-22.05-13.85-40.22-33.44-46.32zM106 46c0-12.13 9.87-22 22-22s22 9.87 22 22c0 7.17-3.45 13.55-8.78 17.56C137.54 66.35 132.96 68 128 68s-9.54-1.65-13.22-4.44C109.45 59.55 106 53.17 106 46zm53.77 68.48c-1.9-1.53-4.47-2.48-7.76-2.48-6.4 0-10.07 3.6-11.41 8h-21.67c-1.09-4.58-5.22-8-10.13-8H83.19l-.21.01c-.85.04-1.78.21-2.62.41-1.14.26-2.13.59-2.56.74l-5.68 1.58-10.78 3-2.04.57-7.78 2.16c-.73-2.81-2.39-5.34-5.08-6.89h-.01c-1.72-.99-3.86-1.58-6.44-1.58-8.28 0-11.99 6.03-11.99 12v28c0 5.97 3.71 12 11.99 12 6.4 0 10.07-3.6 11.41-8h4.835l24.13 18.391.168.122a10.353 10.353 0 0 0 5.863 1.81c.97 0 1.933-.135 2.948-.426l22.486-6.188 1.015-.28c2.176-.682 3.967-1.995 5.213-3.72L135.455 156h5.145c1.34 4.4 5.01 8 11.41 8 8.28 0 11.99-6.03 11.99-12v-28c0-1.87-.37-3.76-1.12-5.46-.7-1.56-1.73-2.96-3.11-4.06zM43.98 152c0 4-2.9 4-3.99 4-1.09 0-3.99 0-3.99-4v-28c0-4 2.9-4 3.99-4 1.09 0 3.99 0 3.99 4v28zm68.027 7.518c0 1.117-.546 1.937-1.5 2.26l-23.142 6.359-.307.094a2.408 2.408 0 0 1-1.947-.28L58.937 148H51.98v-19.35l28.09-7.82.26-.08c.79-.28 2.24-.69 3-.75h25.1c-1.73 0-3.77.48-4.2.59l-7.31 1.88c-.85.19-2 .49-2.75.85-.73.35-1.78 1.1-2.48 1.62L87.43 128l-10.85 7.8-.81.61a10.352 10.352 0 0 0-3.98 8.19c0 5.73 4.66 10.4 10.4 10.4 1.6 0 3.14-.36 4.57-1.06l14.328-8.709 10.777 13.314.005.015.228.273-.226-.268c.055.162.135.478.135.953zM133.374 148l-13.992 7.808c-.348-.955-.746-1.575-.93-1.832L110.38 144H116v-8h-15.12l-17.77 10.82c-.29.12-.6.18-.92.18a2.4 2.4 0 0 1-2.4-2.4c0-.75.33-1.44.85-1.85l15.79-11.36c.41-.31.92-.67 1.18-.84.25-.08.73-.2 1.11-.29l7.46-1.91c.57-.14 1.68-.35 2.25-.35h31.59v20h-6.646zM156 152c0 4-2.9 4-3.99 4-1.09 0-3.99 0-3.99-4v-28c0-4 2.9-4 3.99-4 1.09 0 3.99 0 3.99 4v28z"/></svg>