<?xml version="1.0" encoding="UTF-8"?>
<svg xmlns="http://www.w3.org/2000/svg" viewBox="0 0 192 192"><path d="M48 168H24l.026-84.45C24.478 79.557 27.562 72 36 72c8.805 0 12 7.177 12 12v84zm-16-8h8V84c-.046-1.798-.778-4-4-4-3.043 0-3.826 3.234-4 4.287V160zm48 8H56l.026-100.45c.452-3.996 3.536-11.551 11.974-11.551 8.805 0 12 7.176 12 12v100zm-16-8h8V67.999c-.046-1.799-.778-4-4-4-3.043 0-3.826 3.233-4 4.287V160zm44 0H96v-60h24v13.71c2.374-1.536 5.041-2.769 8-3.687V92H88v76h20v-8zm60 8.002h-52v-32c0-5.65 2.136-10.48 6.177-13.966 4.54-3.917 11.289-5.948 20.057-6.036 9.148-.074 16.036 2.09 20.474 6.485 3.462 3.427 5.292 8.1 5.292 13.517v32zm-44-8h36v-24c0-3.28-.983-5.914-2.92-7.832-2.825-2.797-7.945-4.263-14.766-4.17-8.355.083-18.314 2.234-18.314 12.002v24zM40 55c0-2.396-1.148-4.54-2.26-6.612C36.926 46.865 36 45.139 36 44c0-1.567 1.694-4.019 2.828-5.171l-5.656-5.658C32.642 33.701 28 38.501 28 44c0 3.147 1.491 5.93 2.69 8.167.502.937 1.262 2.355 1.31 2.833 0 2.682-2.054 5.377-2.846 6.189L32 64l-2.829-2.829 5.658 5.658C35.358 66.299 40 61.47 40 55zm32-16c0-2.396-1.148-4.54-2.26-6.612C68.926 30.865 68 29.139 68 28c0-1.567 1.694-4.019 2.828-5.171l-5.656-5.658C64.642 17.701 60 22.501 60 28c0 3.147 1.491 5.93 2.69 8.167.502.937 1.262 2.355 1.31 2.833 0 2.682-2.054 5.377-2.846 6.189L64 48l-2.829-2.829 5.658 5.658C67.358 50.299 72 45.47 72 39z" style="fill: #9f3996;"/></svg>