<?xml version="1.0" encoding="UTF-8"?>
<svg xmlns="http://www.w3.org/2000/svg" viewBox="0 0 192 192"><path fill="#1a1a18" d="M96 24c39.7 0 72 32.3 72 72s-32.3 72-72 72-72-32.3-72-72 32.3-72 72-72m0-8c-44.183 0-80 35.817-80 80 0 44.182 35.817 80 80 80 44.182 0 80-35.818 80-80 0-44.183-35.818-80-80-80zM72.925 72.698H97.59C95.886 67.242 91.34 64.4 84.292 64.4H66.105l6.82-8.298h52.97l-6.82 8.298h-12.617c1.591 2.387 2.728 5.115 3.183 8.298h16.254l-6.82 8.298h-9.321c-1.25 8.752-7.047 14.55-16.482 16.595 9.548 3.297 12.504 7.389 15.005 20.688 1.477 6.934 4.547 15.686 5.91 17.05v.569h-12.162c-2.728-4.775-3.978-8.98-6.025-19.097-2.387-11.707-6.593-15.459-17.391-15.459h-6.025v-9.547h9.207c9.435 0 14.777-3.638 16.142-10.8H66.105l6.82-8.297z" style="fill: #007bc0;"/></svg>
