<?xml version="1.0" encoding="UTF-8"?>
<svg xmlns="http://www.w3.org/2000/svg" viewBox="0 0 192 192"><path d="M78.829 118.829l6.07-6.071c3.185 2.116 7 3.356 11.101 3.356s7.916-1.24 11.1-3.356l6.071 6.07 5.658-5.657-6.071-6.07c2.116-3.185 3.356-7 3.356-11.101s-1.24-7.916-3.356-11.1l6.07-6.071-5.657-5.658-6.07 6.071c-3.185-2.116-7-3.356-11.101-3.356s-7.916 1.24-11.1 3.356l-6.071-6.07-5.658 5.657 6.071 6.07c-2.116 3.185-3.356 7-3.356 11.101s1.24 7.916 3.356 11.1l-6.07 6.071 5.657 5.658zM107.886 96c0 6.554-5.332 11.886-11.886 11.886S84.114 102.554 84.114 96 89.446 84.114 96 84.114 107.886 89.446 107.886 96zM16 56v80h160V56H16zm152 72H24V64h144v64z" style="fill: #007bc0;"/></svg>
