<?xml version="1.0" encoding="UTF-8"?>
<svg xmlns="http://www.w3.org/2000/svg" viewBox="0 0 192 192"><path d="M160 106.712V50c0-18.748-15.252-34-34-34H66c-18.748 0-34 15.252-34 34v54.135c0 9.196 3.915 17.902 10.741 23.887a82.648 82.648 0 0 0 5.67 4.543l-.125-.05-16 40 7.428 2.97L44.308 164h103.384l4.594 11.485 7.428-2.97-16-40-.194.077a80.507 80.507 0 0 0 8.655-7.257c4.973-4.817 7.825-11.605 7.825-18.623zM144.492 156H47.508l7.608-19.02C65.353 143.022 78.955 148 96 148c17.133 0 30.795-5.125 40.871-11.052L144.492 156zM152 106.712c0 4.864-1.965 9.558-5.392 12.877C138.74 127.212 121.703 140 96 140c-22.697 0-38.623-9.785-47.985-17.994-5.094-4.465-8.015-10.98-8.015-17.871V50c0-14.336 11.664-26 26-26h60c14.336 0 26 11.664 26 26v56.712zM128 32H64c-8.822 0-16 7.178-16 16v24.674c0 10.034 6.338 19.097 15.771 22.55 9.348 3.42 20.19 5.154 32.229 5.154s22.881-1.734 32.229-5.155C137.662 91.771 144 82.71 144 72.674V48c0-8.822-7.178-16-16-16zM56 72.674V48c0-4.411 3.589-8 8-8h28v52.306c-9.49-.335-18.046-1.876-25.479-4.596C60.228 85.407 56 79.365 56 72.674zm80 0c0 6.69-4.228 12.733-10.52 15.036-7.434 2.72-15.99 4.261-25.48 4.596V40h28c4.411 0 8 3.589 8 8v24.674zM72 114a6 6 0 1 1-12 0 6 6 0 0 1 12 0zm60 0a6 6 0 1 1-12 0 6 6 0 0 1 12 0z" style="fill: #212529;"/></svg>
