<?xml version="1.0" encoding="UTF-8"?>
<svg xmlns="http://www.w3.org/2000/svg" viewBox="0 0 192 192"><path d="M96 76c-4.411 0-8-3.589-8-8s3.589-8 8-8 8 3.589 8 8-3.589 8-8 8zm80 76v8c-7.46 0-14.045-2.975-16.774-7.58-1.052-1.773-4.876-3.658-9.892-3.658s-8.841 1.885-9.894 3.659c-2.729 4.604-9.313 7.579-16.773 7.579-7.461 0-14.045-2.975-16.774-7.58-1.052-1.773-4.876-3.658-9.893-3.658s-8.84 1.885-9.893 3.659C83.378 157.025 76.794 160 69.334 160c-7.461 0-14.045-2.975-16.775-7.58-1.052-1.773-4.876-3.658-9.892-3.658s-8.841 1.885-9.893 3.658C30.044 157.025 23.46 160 16 160v-8c5.017 0 8.841-1.885 9.893-3.66 2.73-4.603 9.313-7.578 16.774-7.578 7.46 0 14.044 2.975 16.773 7.579.62 1.045 2.207 2.125 4.428 2.84l-21.257-49.6L68 93.116V44h16V24h24v20h16v49.117l25.39 8.463-21.258 49.6c2.22-.714 3.808-1.794 4.427-2.84 2.73-4.603 9.315-7.578 16.774-7.578 7.46 0 14.045 2.975 16.774 7.58C167.16 150.114 170.983 152 176 152zM92 44h8V32h-8v12zM76 90.45l20-6.666 20 6.666V52H76v38.45zm43.21 61.237l19.4-45.267L96 92.216 53.39 106.42l19.4 45.267c3.27-.607 5.642-2.007 6.436-3.346 2.73-4.604 9.314-7.58 16.774-7.58s14.044 2.976 16.774 7.58c.793 1.338 3.166 2.739 6.437 3.346z" style="fill: #212529;"/></svg>
