<?xml version="1.0" encoding="UTF-8"?>
<svg xmlns="http://www.w3.org/2000/svg" viewBox="0 0 192 192"><path d="M116.554 99.697l3.446 5.848 3.446-5.848c.137-.232 13.698-23.245 16.647-28.299C142.576 67.395 144 61.787 144 56c0-13.234-10.767-24-24-24S96 42.766 96 56c0 5.787 1.424 11.395 3.908 15.399 2.95 5.055 16.509 28.066 16.646 28.298zM120 40c8.822 0 16 7.178 16 16 0 4.291-1.019 8.483-2.726 11.213l-.063.105c-1.963 3.366-8.934 15.206-13.211 22.468a11163.51 11163.51 0 0 1-13.21-22.468l-.064-.105C105.019 64.483 104 60.29 104 56c0-8.822 7.178-16 16-16zm-8 16a8 8 0 1 1 16 0 8 8 0 0 1-16 0zm34.96-17.204a31.87 31.87 0 0 1 3.457 7.281L168 41.55v95.567l-44 13.333V116h-8v34.45l-40-13.333V41.55l13.583 4.527a31.867 31.867 0 0 1 3.456-7.28L72 31.783 16 49.117V161.55l56-17.334 48 16 56-17.333V30.45l-29.04 8.346zM68 137.117L24 150.45V54.883L68 41.55v95.567z" style="fill: #297bc0;"/></svg>
